<svg xmlns="http://www.w3.org/2000/svg" xmlns:xlink="http://www.w3.org/1999/xlink" width="20" height="31" viewBox="0 0 20 31">
    <defs>
        <filter id="a" width="192.6%" height="149%" x="-44.4%" y="-23.5%" filterUnits="objectBoundingBox">
            <feOffset in="SourceAlpha" result="shadowOffsetOuter1"/>
            <feGaussianBlur in="shadowOffsetOuter1" result="shadowBlurOuter1" stdDeviation="2"/>
            <feColorMatrix in="shadowBlurOuter1" result="shadowMatrixOuter1" values="0 0 0 0 0 0 0 0 0 0 0 0 0 0 0 0 0 0 0.5 0"/>
            <feMerge>
                <feMergeNode in="shadowMatrixOuter1"/>
                <feMergeNode in="SourceGraphic"/>
            </feMerge>
        </filter>
        <path id="b" d="M-5.215 6.913l-.026.03a1.2 1.2 0 0 0 .1 1.668l11.08 10.147a1.2 1.2 0 0 0 1.621 0L18.642 8.611a1.2 1.2 0 0 0 .1-1.668l-.027-.03a1.168 1.168 0 0 0-1.674-.1L6.75 16.23-3.541 6.813a1.168 1.168 0 0 0-1.674.1z"/>
    </defs>
    <g fill="none" fill-rule="evenodd" filter="url(#a)" transform="translate(3 3)">
        <mask id="c" fill="#fff">
            <use xlink:href="#b"/>
        </mask>
        <use fill="#888" fill-rule="nonzero" transform="rotate(-90 6.75 12.75)" xlink:href="#b"/>
        <g fill="#CCC" mask="url(#c)">
            <path d="M0 0h14v26H0z"/>
        </g>
    </g>
</svg>
