<svg xmlns="http://www.w3.org/2000/svg" width="40" height="40" viewBox="0 0 40 40">
    <g fill="#000" fill-rule="evenodd">
        <path d="M11 20.455l-4-1.406c-.552-.194-1 .208-1 .897 0 .69.448 1.406 1 1.6l4 1.405c.551.194 1-.206 1-.896 0-.69-.449-1.407-1-1.6"/>
        <path d="M19.014 34.282V19.645l18.755-6.709v14.635l-18.755 6.711zM2.234 14.258l14.324 5.29.236.088v14.63l-14.56-5.379v-14.63zm19.853-7.935l5.117 1.893-17.69 6.328-5.116-1.894 17.69-6.327zm-9.291 9.435l17.69-6.328 5.11 1.891-17.686 6.33-.398-.148-4.716-1.745zM40 11.348c0-.18-.052-.347-.127-.5-.006-.014-.011-.027-.018-.039a1.103 1.103 0 0 0-.126-.188c-.014-.018-.03-.034-.047-.05-.05-.053-.099-.104-.158-.146l-.004-.003c-.04-.029-.084-.047-.126-.07-.042-.021-.078-.052-.124-.069L22.474 4.068a1.092 1.092 0 0 0-.748-.004L.74 11.57c-.442.158-.738.58-.741 1.056 0 .032.011.062.014.093v16.957c0 .473.292.897.73 1.058l16.78 6.198c.008.003.015.001.022.004.116.04.236.064.358.064.119 0 .237-.023.35-.06.006-.003.013-.002.019-.005l20.975-7.505c.443-.158.74-.584.74-1.061V11.417c.002-.024.011-.046.012-.07z"/>
    </g>
</svg>
