<svg xmlns="http://www.w3.org/2000/svg" width="40" height="40" viewBox="0 0 40 40">
    <g fill="#000" fill-rule="evenodd">
        <path d="M7 19v2.559L11 23v-2.559z"/>
        <path d="M19.014 34.282v-1.868l18.755-6.71v1.867l-18.755 6.711zm-16.78-7.254l14.56 5.378v1.86l-14.56-5.379v-1.859zm18.75-20.31v9.803c0 .01.002.018.003.028l-3.077 1.102-.4-.148L4.399 12.65l16.586-5.932zm-1.97 12.928l18.755-6.71v10.379l-18.755 6.71v-10.38zm4.19-12.91l12.393 4.585-12.393 4.435v-9.02zm-20.97 7.522l14.324 5.29.236.088v10.372l-14.56-5.377V14.258zM40 11.348c0-.18-.052-.347-.127-.5-.006-.013-.011-.027-.018-.039a1.145 1.145 0 0 0-.125-.188l-.048-.05a1.16 1.16 0 0 0-.162-.15c-.039-.027-.083-.045-.125-.068-.042-.022-.08-.053-.125-.07L22.474 4.069c-.01-.003-.02-.002-.03-.005a1.083 1.083 0 0 0-.336-.061L22.097 4 22.094 4c-.12 0-.23.024-.338.06-.01.002-.022 0-.031.005L.74 11.57c-.442.157-.738.58-.741 1.055 0 .032.011.062.014.093v16.958c0 .473.292.896.73 1.057l16.78 6.198c.008.003.015.001.022.004.116.04.236.064.358.064.12 0 .237-.023.35-.06.006-.003.013-.002.019-.005l20.975-7.505c.443-.158.74-.584.74-1.061V11.417c.002-.024.012-.045.012-.07z"/>
    </g>
</svg>
