<svg xmlns="http://www.w3.org/2000/svg" xmlns:xlink="http://www.w3.org/1999/xlink" width="70" height="70" viewBox="0 0 70 70">
    <defs>
        <circle id="b" cx="30" cy="30" r="30"/>
        <filter id="a" filterUnits="objectBoundingBox">
            <feOffset in="SourceAlpha" result="shadowOffsetOuter1"/>
            <feGaussianBlur in="shadowOffsetOuter1" result="shadowBlurOuter1" stdDeviation="2"/>
            <feColorMatrix in="shadowBlurOuter1" values="0 0 0 0 0 0 0 0 0 0 0 0 0 0 0 0 0 0 0.5 0"/>
        </filter>
        <path id="c" d="M6.682 0C4.798 0 3.085.652 1.875 1.84.665 3.03 0 4.73 0 6.683c0 3.302 2.024 5.765 4.33 7.84 2.305 2.076 4.994 3.913 6.818 6.069.2.251.498.4.818.409h.068c.32-.009.618-.158.818-.41 1.824-2.155 4.513-3.992 6.818-6.067C21.976 12.447 24 9.984 24 6.682c0-1.952-.699-3.652-1.91-4.841C20.88.652 19.203 0 17.319 0c-1.866 0-3.396 1.018-4.466 1.943-.524.452-.55.575-.852.92-.298-.345-.328-.468-.852-.92C10.082 1.018 8.548 0 6.682 0z"/>
    </defs>
    <g fill="none" fill-rule="evenodd">
        <g transform="translate(5 5)">
            <use fill="#000" filter="url(#a)" xlink:href="#b"/>
            <use fill="#FFF" xlink:href="#b"/>
        </g>
        <g transform="translate(23 26)">
            <mask id="d" fill="#fff">
                <use xlink:href="#c"/>
            </mask>
            <use fill="#EF5F8A" fill-rule="nonzero" xlink:href="#c"/>
            <g fill="#EF5F8A" mask="url(#d)">
                <path d="M0 0h24v21H0z"/>
            </g>
        </g>
    </g>
</svg>
