<svg xmlns="http://www.w3.org/2000/svg" xmlns:xlink="http://www.w3.org/1999/xlink" width="101" height="16" viewBox="0 0 101 16">
    <defs>
        <path id="a" d="M0 15.583h90.963V0H0z"/>
    </defs>
    <g fill="none" fill-rule="evenodd" transform="translate(5)">
        <path fill="#505050" d="M45.122 12.622v-.005a2.281 2.281 0 0 1-2.277-2.285h-.004V1.169h-2.457v9.163c0 2.626 2.121 4.754 4.738 4.754h3.413v-2.464h-3.413zM50.27 1.17h-.985v2.465h.985v.004a2.281 2.281 0 0 1 2.276 2.285h.006v4.29h2.455v-4.29c0-2.626-2.12-4.755-4.737-4.755"/>
        <mask id="b" fill="#fff">
            <use xlink:href="#a"/>
        </mask>
        <path fill="#505050" d="M69.017 1.628h1.622V0h-1.622zM71.565 1.628h1.622V0h-1.622zM61.123 1.159v3.173c0 2.51-.423 3.702-.646 4.203l-.349.783-.002.002-2.422 5.22 2.225 1.043 2.423-5.221v-.001l.004.002c.09-.189.22-.467.277-.583.534-1.088.946-2.826.946-4.982V1.16h-2.456zM74.199 14.541L71.776 9.32h-.001l-.35-.785c-.223-.501-.646-1.693-.646-4.203V2.612h-2.456v2.186c0 2.156.412 3.894.946 4.981.057.117.188.395.277.584l.008.004 2.42 5.216 2.225-1.042zM30.148 7.221L28.754.001h2.505l1.725 8.874z" mask="url(#b)"/>
        <path fill="#505050" d="M22.793 3.624h12.244V1.16H22.793zM34.223 14.659c-9.533 1.549-12.557-.35-12.557-4.029 0-2.743 1.588-6.071 10.826-4.217l.492 2.463c-2.115-.558-8.861-2-8.861 1.754 0 2.724 4.105 2.635 9.694 1.66l.406 2.369zM5.342 15.091L3.534 0h2.659L8 15.09zM11.365 4.937L10.773 0h2.508l.592 4.937z" mask="url(#b)"/>
        <path fill="#505050" d="M0 5.268l.744 2.278C5.312 5.643 15.48 2.942 15.48 7.332c0 1.422-1.634 2.215-4.218 1.648l.277 2.31c4.426.719 6.398-1.634 6.398-3.957C17.938-.657 3.32 3.81 0 5.268M83.95 9.051l1.933-1.52 5.08 6.502-1.933 1.52z" mask="url(#b)"/>
        <path fill="#505050" d="M78.235 1.159v2.465h7.728v.302c0 1.967-1.98 3.63-2.013 3.659l-7.22 6.08 1.58 1.888 7.082-5.964s3.027-2.147 3.027-5.435V1.159H78.235z" mask="url(#b)"/>
    </g>
</svg>
