<svg xmlns="http://www.w3.org/2000/svg" xmlns:xlink="http://www.w3.org/1999/xlink" width="42" height="42" viewBox="0 0 42 42">
    <defs>
        <path id="a" d="M.329.097h20.075v31.207H.33z"/>
    </defs>
    <g fill="none" fill-rule="evenodd">
        <g transform="translate(14 5.6)">
            <mask id="b" fill="#fff">
                <use xlink:href="#a"/>
            </mask>
            <path fill="#000" d="M11.06 4.419V4.03c0-1.89 1.675-2.219 2.392-1.463.307.324.47.83.47 1.463 0 3.387-2.903 6.887-2.933 6.922l-.622 1.712h4.92c2.148 0 2.979.869 3.016 3.19l-3.289 9.49v.175c0 3.144-.583 3.697-3.902 3.697h-5.67C3.32 29.217.9 26.885.9 26.885l-.57-.006v2.145s1.824 2.28 5.113 2.28h5.67c4.37 0 5.958-1.472 6.001-5.607l3.292-9.496v-.175c0-4.503-2.784-5.448-5.119-5.448h-1.465c.983-1.567 2.2-4.018 2.2-6.547 0-1.485-.566-2.394-1.04-2.894a3.324 3.324 0 0 0-2.436-1.04C10.9.097 9.16 1.329 8.976 3.624L.329 13.402v2.84l.45-.024 10.28-11.8z" mask="url(#b)"/>
        </g>
        <path fill="#000" d="M12.541 35.145H7v-2.087h3.441V20.727H7V18.64h5.541z"/>
    </g>
</svg>
