<svg xmlns="http://www.w3.org/2000/svg" xmlns:xlink="http://www.w3.org/1999/xlink" width="42" height="42" viewBox="0 0 42 42">
    <defs>
        <path id="a" d="M0 .635h3.07v3.07H0z"/>
        <path id="c" d="M.795.634h3.07v3.07H.795z"/>
    </defs>
    <g fill="none" fill-rule="evenodd">
        <path fill="#000" d="M23.952 20.88a3.07 3.07 0 1 1-6.14.002 3.07 3.07 0 0 1 6.14-.002M23.184 12.77a2.302 2.302 0 1 1-4.604 0 2.302 2.302 0 0 1 4.604 0M22.416 6.534a1.535 1.535 0 1 1-3.07.002 1.535 1.535 0 0 1 3.07-.002M15.13 13.363a1.766 1.766 0 1 1-3.532 0 1.766 1.766 0 0 1 3.531 0"/>
        <path fill="#000" d="M20.88 17.81a3.07 3.07 0 1 1 .001 6.142 3.07 3.07 0 0 1 0-6.141M12.77 18.579a2.302 2.302 0 1 1 0 4.604 2.302 2.302 0 0 1 0-4.604"/>
        <g transform="translate(5 18.712)">
            <mask id="b" fill="#fff">
                <use xlink:href="#a"/>
            </mask>
            <path fill="#000" d="M1.535.635a1.535 1.535 0 1 1 0 3.07 1.535 1.535 0 0 1 0-3.07" mask="url(#b)"/>
        </g>
        <path fill="#000" d="M13.363 26.633a1.766 1.766 0 1 1-.001 3.532 1.766 1.766 0 0 1 0-3.532M17.81 20.882a3.07 3.07 0 1 1 6.142 0 3.07 3.07 0 0 1-6.141 0M18.579 28.993a2.302 2.302 0 1 1 4.604 0 2.302 2.302 0 0 1-4.604 0M19.347 35.228a1.535 1.535 0 1 1 3.07-.001 1.535 1.535 0 0 1-3.07.001M26.633 28.4a1.767 1.767 0 1 1 3.534 0 1.767 1.767 0 0 1-3.534 0"/>
        <path fill="#000" d="M20.882 23.952a3.07 3.07 0 1 1 0-6.142 3.07 3.07 0 0 1 0 6.142M28.993 23.184a2.302 2.302 0 1 1 0-4.604 2.302 2.302 0 0 1 0 4.604"/>
        <g transform="translate(32.897 18.712)">
            <mask id="d" fill="#fff">
                <use xlink:href="#c"/>
            </mask>
            <path fill="#000" d="M2.33 3.705a1.535 1.535 0 1 1 0-3.07 1.535 1.535 0 0 1 0 3.07" mask="url(#d)"/>
        </g>
        <path fill="#000" d="M28.4 15.13a1.767 1.767 0 1 1 0-3.534 1.767 1.767 0 0 1 0 3.534"/>
    </g>
</svg>
