<svg xmlns="http://www.w3.org/2000/svg" xmlns:xlink="http://www.w3.org/1999/xlink" width="42" height="42" viewBox="0 0 42 42">
    <defs>
        <path id="a" d="M0 0h18.814v29.985H0z"/>
    </defs>
    <g fill="none" fill-rule="evenodd" transform="translate(11.5 6)">
        <mask id="b" fill="#fff">
            <use xlink:href="#a"/>
        </mask>
        <path fill="#000" d="M12.093 4.64l5.168 10.03c1.63 3.205 1.57 5.631 1.546 6.034-.019 5.12-4.227 9.28-9.396 9.28-5.165 0-9.37-4.152-9.396-9.266-.038-.459-.128-2.804 1.545-6.047L9.135 0h.552l.935 1.812L9.158 4.55 3.439 15.625c-1.51 2.927-1.322 4.906-1.32 4.925l.007.119c0 3.983 3.267 7.223 7.285 7.223 4.017 0 7.285-3.24 7.285-7.223l.004-.09c.001-.015.136-2.097-1.32-4.96l-4.463-8.663 1.176-2.316z" mask="url(#b)"/>
    </g>
</svg>
